<svg width="180" height="180" viewBox="0 0 180 180" fill="none" xmlns="http://www.w3.org/2000/svg">
  <!-- Fond carré de la couleur du logo -->
  <rect width="180" height="180" fill="#C2410C" rx="20"/>
  
  <!-- Logo centré (même contenu que le logo rond mais dans un carré) -->
  <g transform="translate(90, 90)">
    <!-- Première silhouette (gauche) -->
    <g transform="translate(0, 0)">
      <!-- Tête -->
      <circle cx="-15" cy="-20" r="8" fill="#FFFBEB"/>
      <!-- Corps arrondi -->
      <path d="M -15 -12 Q -15 5 -15 15 Q -15 25 -10 25 Q -5 25 -5 20 L -5 15 Q -5 5 -5 -12 Z" fill="#FFFBEB"/>
      <!-- Bras gauche (tend vers le centre) -->
      <ellipse cx="-8" cy="5" rx="4" ry="12" fill="#FFFBEB" transform="rotate(-20 -8 5)"/>
      <!-- Bras droit (tend vers l'extérieur) -->
      <ellipse cx="-22" cy="5" rx="4" ry="12" fill="#FFFBEB" transform="rotate(20 -22 5)"/>
    </g>

    <!-- Deuxième silhouette (droite) -->
    <g transform="translate(0, 0)">
      <!-- Tête -->
      <circle cx="15" cy="-20" r="8" fill="#FEF3C7"/>
      <!-- Corps arrondi -->
      <path d="M 15 -12 Q 15 5 15 15 Q 15 25 10 25 Q 5 25 5 20 L 5 15 Q 5 5 5 -12 Z" fill="#FEF3C7"/>
      <!-- Bras gauche (tend vers l'extérieur) -->
      <ellipse cx="22" cy="5" rx="4" ry="12" fill="#FEF3C7" transform="rotate(-20 22 5)"/>
      <!-- Bras droit (tend vers le centre) -->
      <ellipse cx="8" cy="5" rx="4" ry="12" fill="#FEF3C7" transform="rotate(20 8 5)"/>
    </g>

    <!-- Ligne de connexion entre les deux silhouettes -->
    <path d="M 35 0 Q 0 -5 -35 0" stroke="#FFFBEB" stroke-width="2" stroke-linecap="round" opacity="0.8"/>
  </g>
</svg>
